<?xml version="1.0" encoding="UTF-8" standalone="no"?>
<!DOCTYPE svg PUBLIC "-//W3C//DTD SVG 1.1//EN"
 "http://www.w3.org/Graphics/SVG/1.1/DTD/svg11.dtd">
<!-- Generated by graphviz version 2.43.0 (0)
 -->
<!-- Title: SystemIntegrationOverview Pages: 1 -->
<svg width="789pt" height="213pt"
 viewBox="0.00 0.00 789.00 213.00" xmlns="http://www.w3.org/2000/svg" xmlns:xlink="http://www.w3.org/1999/xlink">
<g id="graph0" class="graph" transform="scale(1 1) rotate(0) translate(4 209)">
<title>SystemIntegrationOverview</title>
<polygon fill="white" stroke="transparent" points="-4,4 -4,-209 785,-209 785,4 -4,4"/>
<g id="clust1" class="cluster">
<title>cluster_launch</title>
<polygon fill="#e3f2fd" stroke="black" points="8,-38 8,-167 217,-167 217,-38 8,-38"/>
<text text-anchor="middle" x="112.5" y="-151.8" font-family="Arial" font-size="14.00">Launch Configuration</text>
</g>
<g id="clust2" class="cluster">
<title>cluster_config</title>
<polygon fill="#fff9c4" stroke="black" points="237,-8 237,-197 414,-197 414,-8 237,-8"/>
<text text-anchor="middle" x="325.5" y="-181.8" font-family="Arial" font-size="14.00">Configuration Files</text>
</g>
<g id="clust3" class="cluster">
<title>cluster_shared</title>
<polygon fill="#f3e5f5" stroke="black" points="434,-8 434,-197 592,-197 592,-8 434,-8"/>
<text text-anchor="middle" x="513" y="-181.8" font-family="Arial" font-size="14.00">Shared Components</text>
</g>
<g id="clust4" class="cluster">
<title>cluster_agents</title>
<polygon fill="#e8f5e9" stroke="black" points="612,-38 612,-167 773,-167 773,-38 612,-38"/>
<text text-anchor="middle" x="692.5" y="-151.8" font-family="Arial" font-size="14.00">Active Agents</text>
</g>
<!-- L1 -->
<g id="node1" class="node">
<title>L1</title>
<path fill="#00bcd4" stroke="black" d="M185.5,-136C185.5,-136 39.5,-136 39.5,-136 33.5,-136 27.5,-130 27.5,-124 27.5,-124 27.5,-112 27.5,-112 27.5,-106 33.5,-100 39.5,-100 39.5,-100 185.5,-100 185.5,-100 191.5,-100 197.5,-106 197.5,-112 197.5,-112 197.5,-124 197.5,-124 197.5,-130 191.5,-136 185.5,-136"/>
<text text-anchor="middle" x="112.5" y="-114.3" font-family="Arial" font-size="14.00" fill="white">oai_dual_agent.launch.py</text>
</g>
<!-- C1 -->
<g id="node3" class="node">
<title>C1</title>
<path fill="#ff9800" stroke="black" d="M373,-166C373,-166 278,-166 278,-166 272,-166 266,-160 266,-154 266,-154 266,-140 266,-140 266,-134 272,-128 278,-128 278,-128 373,-128 373,-128 379,-128 385,-134 385,-140 385,-140 385,-154 385,-154 385,-160 379,-166 373,-166"/>
<text text-anchor="middle" x="325.5" y="-150.8" font-family="Arial" font-size="14.00">prompts.yaml</text>
<text text-anchor="middle" x="325.5" y="-135.8" font-family="Arial" font-size="14.00">Macro definitions</text>
</g>
<!-- L1&#45;&gt;C1 -->
<g id="edge1" class="edge">
<title>L1&#45;&gt;C1</title>
<path fill="none" stroke="black" d="M197.8,-129.59C217.08,-132.24 237.33,-135.02 255.86,-137.57"/>
<polygon fill="black" stroke="black" points="255.57,-141.06 265.95,-138.95 256.52,-134.12 255.57,-141.06"/>
</g>
<!-- C2 -->
<g id="node4" class="node">
<title>C2</title>
<path fill="#ffa726" stroke="black" d="M394,-54C394,-54 257,-54 257,-54 251,-54 245,-48 245,-42 245,-42 245,-28 245,-28 245,-22 251,-16 257,-16 257,-16 394,-16 394,-16 400,-16 406,-22 406,-28 406,-28 406,-42 406,-42 406,-48 400,-54 394,-54"/>
<text text-anchor="middle" x="325.5" y="-38.8" font-family="Arial" font-size="14.00">bridge_dual_agent.yaml</text>
<text text-anchor="middle" x="325.5" y="-23.8" font-family="Arial" font-size="14.00">Topic mappings</text>
</g>
<!-- L1&#45;&gt;C2 -->
<g id="edge2" class="edge">
<title>L1&#45;&gt;C2</title>
<path fill="none" stroke="black" d="M197.67,-101.54C204.48,-98.59 211.03,-95.11 217,-91 229.6,-82.33 224.64,-72.01 237,-63 238.83,-61.66 240.73,-60.39 242.68,-59.17"/>
<polygon fill="black" stroke="black" points="244.52,-62.15 251.54,-54.22 241.11,-56.05 244.52,-62.15"/>
</g>
<!-- C3 -->
<g id="node5" class="node">
<title>C3</title>
<path fill="#ffb74d" stroke="black" d="M365.5,-110C365.5,-110 285.5,-110 285.5,-110 279.5,-110 273.5,-104 273.5,-98 273.5,-98 273.5,-84 273.5,-84 273.5,-78 279.5,-72 285.5,-72 285.5,-72 365.5,-72 365.5,-72 371.5,-72 377.5,-78 377.5,-84 377.5,-84 377.5,-98 377.5,-98 377.5,-104 371.5,-110 365.5,-110"/>
<text text-anchor="middle" x="325.5" y="-94.8" font-family="Arial" font-size="14.00">agent configs</text>
<text text-anchor="middle" x="325.5" y="-79.8" font-family="Arial" font-size="14.00">Model settings</text>
</g>
<!-- L1&#45;&gt;C3 -->
<g id="edge3" class="edge">
<title>L1&#45;&gt;C3</title>
<path fill="none" stroke="black" d="M197.8,-107.21C219.7,-104.41 242.87,-101.45 263.32,-98.83"/>
<polygon fill="black" stroke="black" points="263.96,-102.28 273.44,-97.53 263.07,-95.33 263.96,-102.28"/>
</g>
<!-- L2 -->
<g id="node2" class="node">
<title>L2</title>
<path fill="#ff5722" stroke="black" d="M197,-82C197,-82 28,-82 28,-82 22,-82 16,-76 16,-70 16,-70 16,-58 16,-58 16,-52 22,-46 28,-46 28,-46 197,-46 197,-46 203,-46 209,-52 209,-58 209,-58 209,-70 209,-70 209,-76 203,-82 197,-82"/>
<text text-anchor="middle" x="112.5" y="-60.3" font-family="Arial" font-size="14.00" fill="white">gemini_dual_agent.launch.py</text>
</g>
<!-- L2&#45;&gt;C1 -->
<g id="edge4" class="edge">
<title>L2&#45;&gt;C1</title>
<path fill="none" stroke="black" d="M201.31,-82.1C206.82,-84.68 212.11,-87.63 217,-91 229.6,-99.67 224.64,-109.99 237,-119 242.94,-123.33 249.57,-127.01 256.46,-130.13"/>
<polygon fill="black" stroke="black" points="255.38,-133.47 265.96,-134.05 258.05,-127 255.38,-133.47"/>
</g>
<!-- L2&#45;&gt;C2 -->
<g id="edge5" class="edge">
<title>L2&#45;&gt;C2</title>
<path fill="none" stroke="black" d="M209.12,-50.86C217.74,-49.67 226.45,-48.48 235.02,-47.3"/>
<polygon fill="black" stroke="black" points="235.56,-50.76 244.99,-45.93 234.61,-43.82 235.56,-50.76"/>
</g>
<!-- L2&#45;&gt;C3 -->
<g id="edge6" class="edge">
<title>L2&#45;&gt;C3</title>
<path fill="none" stroke="black" d="M209.12,-76.24C227.45,-78.58 246.18,-80.98 263.08,-83.14"/>
<polygon fill="black" stroke="black" points="262.98,-86.66 273.34,-84.45 263.86,-79.71 262.98,-86.66"/>
</g>
<!-- S1 -->
<g id="node6" class="node">
<title>S1</title>
<path fill="#9c27b0" stroke="black" d="M561,-110C561,-110 465,-110 465,-110 459,-110 453,-104 453,-98 453,-98 453,-84 453,-84 453,-78 459,-72 465,-72 465,-72 561,-72 561,-72 567,-72 573,-78 573,-84 573,-84 573,-98 573,-98 573,-104 567,-110 561,-110"/>
<text text-anchor="middle" x="513" y="-94.8" font-family="Arial" font-size="14.00" fill="white">PromptLoader</text>
<text text-anchor="middle" x="513" y="-79.8" font-family="Arial" font-size="14.00" fill="white">Macro expansion</text>
</g>
<!-- C1&#45;&gt;S1 -->
<g id="edge7" class="edge">
<title>C1&#45;&gt;S1</title>
<path fill="none" stroke="black" d="M385.19,-129.28C403.54,-123.74 423.96,-117.58 442.95,-111.85"/>
<polygon fill="black" stroke="black" points="444.17,-115.13 452.73,-108.89 442.15,-108.43 444.17,-115.13"/>
</g>
<!-- S2 -->
<g id="node7" class="node">
<title>S2</title>
<path fill="#ab47bc" stroke="black" d="M563.5,-54C563.5,-54 462.5,-54 462.5,-54 456.5,-54 450.5,-48 450.5,-42 450.5,-42 450.5,-28 450.5,-28 450.5,-22 456.5,-16 462.5,-16 462.5,-16 563.5,-16 563.5,-16 569.5,-16 575.5,-22 575.5,-28 575.5,-28 575.5,-42 575.5,-42 575.5,-48 569.5,-54 563.5,-54"/>
<text text-anchor="middle" x="513" y="-38.8" font-family="Arial" font-size="14.00" fill="white">WebSocketBridge</text>
<text text-anchor="middle" x="513" y="-23.8" font-family="Arial" font-size="14.00" fill="white">Communication</text>
</g>
<!-- C2&#45;&gt;S2 -->
<g id="edge10" class="edge">
<title>C2&#45;&gt;S2</title>
<path fill="none" stroke="black" d="M406.25,-35C417.52,-35 429.06,-35 440.18,-35"/>
<polygon fill="black" stroke="black" points="440.25,-38.5 450.25,-35 440.25,-31.5 440.25,-38.5"/>
</g>
<!-- A1 -->
<g id="node9" class="node">
<title>A1</title>
<path fill="#2196f3" stroke="black" d="M753,-136C753,-136 632,-136 632,-136 626,-136 620,-130 620,-124 620,-124 620,-112 620,-112 620,-106 626,-100 632,-100 632,-100 753,-100 753,-100 759,-100 765,-106 765,-112 765,-112 765,-124 765,-124 765,-130 759,-136 753,-136"/>
<text text-anchor="middle" x="692.5" y="-114.3" font-family="Arial" font-size="14.00" fill="white">Conversational Agent</text>
</g>
<!-- S1&#45;&gt;A1 -->
<g id="edge8" class="edge">
<title>S1&#45;&gt;A1</title>
<path fill="none" stroke="black" d="M573.1,-99.99C584.77,-101.76 597.2,-103.66 609.46,-105.52"/>
<polygon fill="black" stroke="black" points="609.28,-109.03 619.7,-107.08 610.34,-102.11 609.28,-109.03"/>
</g>
<!-- A2 -->
<g id="node10" class="node">
<title>A2</title>
<path fill="#4caf50" stroke="black" d="M740,-82C740,-82 645,-82 645,-82 639,-82 633,-76 633,-70 633,-70 633,-58 633,-58 633,-52 639,-46 645,-46 645,-46 740,-46 740,-46 746,-46 752,-52 752,-58 752,-58 752,-70 752,-70 752,-76 746,-82 740,-82"/>
<text text-anchor="middle" x="692.5" y="-60.3" font-family="Arial" font-size="14.00" fill="white">Command Agent</text>
</g>
<!-- S1&#45;&gt;A2 -->
<g id="edge9" class="edge">
<title>S1&#45;&gt;A2</title>
<path fill="none" stroke="black" d="M573.1,-82.01C589.06,-79.58 606.45,-76.94 622.88,-74.44"/>
<polygon fill="black" stroke="black" points="623.6,-77.87 632.96,-72.91 622.54,-70.95 623.6,-77.87"/>
</g>
<!-- S2&#45;&gt;A1 -->
<g id="edge11" class="edge">
<title>S2&#45;&gt;A1</title>
<path fill="none" stroke="black" d="M575.89,-53.14C581.59,-56 587.07,-59.27 592,-63 604.2,-72.23 599.72,-81.88 612,-91 613.85,-92.38 615.78,-93.69 617.77,-94.93"/>
<polygon fill="black" stroke="black" points="616.37,-98.16 626.81,-100 619.8,-92.06 616.37,-98.16"/>
</g>
<!-- S2&#45;&gt;A2 -->
<g id="edge12" class="edge">
<title>S2&#45;&gt;A2</title>
<path fill="none" stroke="black" d="M575.58,-45.06C590.78,-47.54 607.15,-50.22 622.66,-52.75"/>
<polygon fill="black" stroke="black" points="622.28,-56.24 632.72,-54.4 623.41,-49.33 622.28,-56.24"/>
</g>
<!-- S3 -->
<g id="node8" class="node">
<title>S3</title>
<path fill="#ba68c8" stroke="black" d="M572,-166C572,-166 454,-166 454,-166 448,-166 442,-160 442,-154 442,-154 442,-140 442,-140 442,-134 448,-128 454,-128 454,-128 572,-128 572,-128 578,-128 584,-134 584,-140 584,-140 584,-154 584,-154 584,-160 578,-166 572,-166"/>
<text text-anchor="middle" x="513" y="-150.8" font-family="Arial" font-size="14.00" fill="white">ConversationMonitor</text>
<text text-anchor="middle" x="513" y="-135.8" font-family="Arial" font-size="14.00" fill="white">Context tracking</text>
</g>
<!-- S3&#45;&gt;A1 -->
<g id="edge13" class="edge">
<title>S3&#45;&gt;A1</title>
<path fill="none" stroke="black" d="M584.15,-135.54C592.58,-134.16 601.24,-132.75 609.82,-131.35"/>
<polygon fill="black" stroke="black" points="610.51,-134.78 619.82,-129.71 609.39,-127.87 610.51,-134.78"/>
</g>
<!-- S3&#45;&gt;A2 -->
<g id="edge14" class="edge">
<title>S3&#45;&gt;A2</title>
<path fill="none" stroke="black" d="M577.87,-127.84C582.86,-125.23 587.64,-122.3 592,-119 604.2,-109.77 599.72,-100.12 612,-91 615.65,-88.29 619.6,-85.83 623.71,-83.62"/>
<polygon fill="black" stroke="black" points="625.46,-86.66 632.92,-79.13 622.4,-80.36 625.46,-86.66"/>
</g>
</g>
</svg>
