<?xml version="1.0" encoding="UTF-8" standalone="no"?>
<!DOCTYPE svg PUBLIC "-//W3C//DTD SVG 1.1//EN"
 "http://www.w3.org/Graphics/SVG/1.1/DTD/svg11.dtd">
<!-- Generated by graphviz version 2.43.0 (0)
 -->
<!-- Title: PromptConstructionArchitecture Pages: 1 -->
<svg width="553pt" height="771pt"
 viewBox="0.00 0.00 553.00 771.00" xmlns="http://www.w3.org/2000/svg" xmlns:xlink="http://www.w3.org/1999/xlink">
<g id="graph0" class="graph" transform="scale(1 1) rotate(0) translate(4 767)">
<title>PromptConstructionArchitecture</title>
<polygon fill="white" stroke="transparent" points="-4,4 -4,-767 549,-767 549,4 -4,4"/>
<g id="clust1" class="cluster">
<title>cluster_macros</title>
<polygon fill="#f5f5f5" stroke="black" points="0,-8 0,-755 301,-755 301,-8 0,-8"/>
<text text-anchor="middle" x="150.5" y="-739.8" font-family="Arial" font-size="14.00">Macro Components (Reusable Building Blocks)</text>
</g>
<g id="clust2" class="cluster">
<title>cluster_openai</title>
<polygon fill="#e0f7fa" stroke="black" points="328,-473 328,-606 530,-606 530,-473 328,-473"/>
<text text-anchor="middle" x="429" y="-590.8" font-family="Arial" font-size="14.00">OpenAI Agent Prompts</text>
</g>
<g id="clust3" class="cluster">
<title>cluster_gemini</title>
<polygon fill="#ffebee" stroke="black" points="321,-332 321,-465 537,-465 537,-332 321,-332"/>
<text text-anchor="middle" x="429" y="-449.8" font-family="Arial" font-size="14.00">Gemini Agent Prompts</text>
</g>
<!-- M1 -->
<g id="node1" class="node">
<title>M1</title>
<path fill="#2196f3" stroke="black" d="M211.5,-581C211.5,-581 89.5,-581 89.5,-581 83.5,-581 77.5,-575 77.5,-569 77.5,-569 77.5,-557 77.5,-557 77.5,-551 83.5,-545 89.5,-545 89.5,-545 211.5,-545 211.5,-545 217.5,-545 223.5,-551 223.5,-557 223.5,-557 223.5,-569 223.5,-569 223.5,-575 217.5,-581 211.5,-581"/>
<text text-anchor="middle" x="150.5" y="-559.3" font-family="Arial" font-size="14.00" fill="white">robot_name: &#39;Barney&#39;</text>
</g>
<!-- OP1 -->
<g id="node11" class="node">
<title>OP1</title>
<path fill="#00bcd4" stroke="black" d="M493,-575C493,-575 365,-575 365,-575 359,-575 353,-569 353,-563 353,-563 353,-549 353,-549 353,-543 359,-537 365,-537 365,-537 493,-537 493,-537 499,-537 505,-543 505,-549 505,-549 505,-563 505,-563 505,-569 499,-575 493,-575"/>
<text text-anchor="middle" x="429" y="-559.8" font-family="Arial" font-size="14.00" fill="white">barney_conversational</text>
<text text-anchor="middle" x="429" y="-544.8" font-family="Arial" font-size="14.00" fill="white">Natural dialogue focus</text>
</g>
<!-- M1&#45;&gt;OP1 -->
<g id="edge1" class="edge">
<title>M1&#45;&gt;OP1</title>
<path fill="none" stroke="black" d="M223.79,-561.17C260.21,-560.25 304.62,-559.12 342.71,-558.16"/>
<polygon fill="black" stroke="black" points="342.85,-561.66 352.76,-557.9 342.67,-554.66 342.85,-561.66"/>
</g>
<!-- OP2 -->
<g id="node12" class="node">
<title>OP2</title>
<path fill="#00bcd4" stroke="black" d="M510,-519C510,-519 348,-519 348,-519 342,-519 336,-513 336,-507 336,-507 336,-493 336,-493 336,-487 342,-481 348,-481 348,-481 510,-481 510,-481 516,-481 522,-487 522,-493 522,-493 522,-507 522,-507 522,-513 516,-519 510,-519"/>
<text text-anchor="middle" x="429" y="-503.8" font-family="Arial" font-size="14.00" fill="white">barney_command_extractor</text>
<text text-anchor="middle" x="429" y="-488.8" font-family="Arial" font-size="14.00" fill="white">Command extraction only</text>
</g>
<!-- M1&#45;&gt;OP2 -->
<g id="edge2" class="edge">
<title>M1&#45;&gt;OP2</title>
<path fill="none" stroke="black" d="M223.66,-552.99C248.43,-548.76 276.16,-543.13 301,-536 310.2,-533.36 311.91,-531 321,-528 327.37,-525.9 334,-523.85 340.69,-521.88"/>
<polygon fill="black" stroke="black" points="341.88,-525.18 350.52,-519.05 339.94,-518.46 341.88,-525.18"/>
</g>
<!-- GP1 -->
<g id="node13" class="node">
<title>GP1</title>
<path fill="#ff5722" stroke="black" d="M517,-434C517,-434 341,-434 341,-434 335,-434 329,-428 329,-422 329,-422 329,-408 329,-408 329,-402 335,-396 341,-396 341,-396 517,-396 517,-396 523,-396 529,-402 529,-408 529,-408 529,-422 529,-422 529,-428 523,-434 517,-434"/>
<text text-anchor="middle" x="429" y="-418.8" font-family="Arial" font-size="14.00" fill="white">barney_conversational_gemini</text>
<text text-anchor="middle" x="429" y="-403.8" font-family="Arial" font-size="14.00" fill="white">Conversation + vision</text>
</g>
<!-- M1&#45;&gt;GP1 -->
<g id="edge3" class="edge">
<title>M1&#45;&gt;GP1</title>
<path fill="none" stroke="black" d="M223.87,-565.25C250.95,-562.47 280.16,-554.64 301,-536 324.16,-515.28 301.06,-492.83 321,-469 331.56,-456.38 345.81,-446.4 360.46,-438.64"/>
<polygon fill="black" stroke="black" points="362.21,-441.68 369.6,-434.09 359.09,-435.41 362.21,-441.68"/>
</g>
<!-- GP2 -->
<g id="node14" class="node">
<title>GP2</title>
<path fill="#ff5722" stroke="black" d="M501,-378C501,-378 357,-378 357,-378 351,-378 345,-372 345,-366 345,-366 345,-352 345,-352 345,-346 351,-340 357,-340 357,-340 501,-340 501,-340 507,-340 513,-346 513,-352 513,-352 513,-366 513,-366 513,-372 507,-378 501,-378"/>
<text text-anchor="middle" x="429" y="-362.8" font-family="Arial" font-size="14.00" fill="white">barney_command_visual</text>
<text text-anchor="middle" x="429" y="-347.8" font-family="Arial" font-size="14.00" fill="white">Combined mode agent</text>
</g>
<!-- M1&#45;&gt;GP2 -->
<g id="edge4" class="edge">
<title>M1&#45;&gt;GP2</title>
<path fill="none" stroke="black" d="M223.51,-567.04C251.36,-564.69 281.23,-556.69 301,-536 347.17,-487.7 276.73,-437.05 321,-387 325.3,-382.14 330.33,-378.07 335.82,-374.68"/>
<polygon fill="black" stroke="black" points="337.63,-377.68 344.79,-369.88 334.32,-371.51 337.63,-377.68"/>
</g>
<!-- M2 -->
<g id="node2" class="node">
<title>M2</title>
<path fill="#2196f3" stroke="black" d="M222,-527C222,-527 79,-527 79,-527 73,-527 67,-521 67,-515 67,-515 67,-471 67,-471 67,-465 73,-459 79,-459 79,-459 222,-459 222,-459 228,-459 234,-465 234,-471 234,-471 234,-515 234,-515 234,-521 228,-527 222,-527"/>
<text text-anchor="middle" x="150.5" y="-511.8" font-family="Arial" font-size="14.00" fill="white">robot_capabilities</text>
<text text-anchor="middle" x="150.5" y="-496.8" font-family="Arial" font-size="14.00" fill="white">&#45; Skid&#45;steer base</text>
<text text-anchor="middle" x="150.5" y="-481.8" font-family="Arial" font-size="14.00" fill="white">&#45; 4DOF arm with camera</text>
<text text-anchor="middle" x="150.5" y="-466.8" font-family="Arial" font-size="14.00" fill="white">&#45; Vision capabilities</text>
</g>
<!-- M2&#45;&gt;OP1 -->
<g id="edge5" class="edge">
<title>M2&#45;&gt;OP1</title>
<path fill="none" stroke="black" d="M234.08,-511.82C268.41,-519.64 308.23,-528.71 342.83,-536.59"/>
<polygon fill="black" stroke="black" points="342.38,-540.08 352.91,-538.89 343.94,-533.26 342.38,-540.08"/>
</g>
<!-- M2&#45;&gt;OP2 -->
<g id="edge6" class="edge">
<title>M2&#45;&gt;OP2</title>
<path fill="none" stroke="black" d="M234.08,-495.09C262.82,-495.82 295.41,-496.64 325.56,-497.41"/>
<polygon fill="black" stroke="black" points="325.6,-500.91 335.68,-497.66 325.77,-493.91 325.6,-500.91"/>
</g>
<!-- M2&#45;&gt;GP1 -->
<g id="edge7" class="edge">
<title>M2&#45;&gt;GP1</title>
<path fill="none" stroke="black" d="M234.08,-469.7C270.88,-459.32 314,-447.16 350.22,-436.94"/>
<polygon fill="black" stroke="black" points="351.57,-440.2 360.25,-434.11 349.67,-433.46 351.57,-440.2"/>
</g>
<!-- M2&#45;&gt;GP2 -->
<g id="edge8" class="edge">
<title>M2&#45;&gt;GP2</title>
<path fill="none" stroke="black" d="M234.25,-484.2C258.35,-477.98 283,-467.52 301,-450 322.05,-429.51 299.7,-407.23 321,-387 325.41,-382.81 330.38,-379.22 335.69,-376.16"/>
<polygon fill="black" stroke="black" points="337.57,-379.13 344.91,-371.49 334.4,-372.89 337.57,-379.13"/>
</g>
<!-- M3 -->
<g id="node3" class="node">
<title>M3</title>
<path fill="#4caf50" stroke="black" d="M217,-140.5C217,-140.5 84,-140.5 84,-140.5 78,-140.5 72,-134.5 72,-128.5 72,-128.5 72,-99.5 72,-99.5 72,-93.5 78,-87.5 84,-87.5 84,-87.5 217,-87.5 217,-87.5 223,-87.5 229,-93.5 229,-99.5 229,-99.5 229,-128.5 229,-128.5 229,-134.5 223,-140.5 217,-140.5"/>
<text text-anchor="middle" x="150.5" y="-125.3" font-family="Arial" font-size="14.00" fill="white">arm_presets</text>
<text text-anchor="middle" x="150.5" y="-110.3" font-family="Arial" font-size="14.00" fill="white">&#45; bumper, tenhut</text>
<text text-anchor="middle" x="150.5" y="-95.3" font-family="Arial" font-size="14.00" fill="white">&#45; lookup, lookout, reach</text>
</g>
<!-- M3&#45;&gt;OP2 -->
<g id="edge13" class="edge">
<title>M3&#45;&gt;OP2</title>
<path fill="none" stroke="black" d="M229.31,-114.71C255.93,-119.1 283.4,-129.05 301,-150 346.68,-204.39 276.58,-413.58 321,-469 323.12,-471.64 325.44,-474.07 327.94,-476.29"/>
<polygon fill="black" stroke="black" points="325.85,-479.1 335.92,-482.39 330.1,-473.53 325.85,-479.1"/>
</g>
<!-- M3&#45;&gt;GP2 -->
<g id="edge14" class="edge">
<title>M3&#45;&gt;GP2</title>
<path fill="none" stroke="black" d="M229.05,-120.82C253.83,-125.96 280.19,-134.81 301,-150 364.45,-196.31 402.52,-284.84 418.75,-330.38"/>
<polygon fill="black" stroke="black" points="415.49,-331.64 422.07,-339.94 422.1,-329.34 415.49,-331.64"/>
</g>
<!-- M4 -->
<g id="node4" class="node">
<title>M4</title>
<path fill="#4caf50" stroke="black" d="M203.5,-440.5C203.5,-440.5 97.5,-440.5 97.5,-440.5 91.5,-440.5 85.5,-434.5 85.5,-428.5 85.5,-428.5 85.5,-399.5 85.5,-399.5 85.5,-393.5 91.5,-387.5 97.5,-387.5 97.5,-387.5 203.5,-387.5 203.5,-387.5 209.5,-387.5 215.5,-393.5 215.5,-399.5 215.5,-399.5 215.5,-428.5 215.5,-428.5 215.5,-434.5 209.5,-440.5 203.5,-440.5"/>
<text text-anchor="middle" x="150.5" y="-425.3" font-family="Arial" font-size="14.00" fill="white">bearing_presets</text>
<text text-anchor="middle" x="150.5" y="-410.3" font-family="Arial" font-size="14.00" fill="white">&#45; left, right, forward</text>
<text text-anchor="middle" x="150.5" y="-395.3" font-family="Arial" font-size="14.00" fill="white">&#45; back, full&#45;left, etc.</text>
</g>
<!-- M4&#45;&gt;OP2 -->
<g id="edge15" class="edge">
<title>M4&#45;&gt;OP2</title>
<path fill="none" stroke="black" d="M215.63,-421.87C243.12,-427.12 274.85,-435.78 301,-450 311.77,-455.86 310.37,-462.9 321,-469 326.1,-471.93 331.51,-474.6 337.07,-477.03"/>
<polygon fill="black" stroke="black" points="335.96,-480.36 346.54,-480.9 338.61,-473.88 335.96,-480.36"/>
</g>
<!-- M4&#45;&gt;GP2 -->
<g id="edge16" class="edge">
<title>M4&#45;&gt;GP2</title>
<path fill="none" stroke="black" d="M215.63,-401.24C251.07,-394.19 295.75,-385.31 334.96,-377.51"/>
<polygon fill="black" stroke="black" points="335.68,-380.93 344.81,-375.55 334.32,-374.07 335.68,-380.93"/>
</g>
<!-- M5 -->
<g id="node5" class="node">
<title>M5</title>
<path fill="#4caf50" stroke="black" d="M205,-369.5C205,-369.5 96,-369.5 96,-369.5 90,-369.5 84,-363.5 84,-357.5 84,-357.5 84,-328.5 84,-328.5 84,-322.5 90,-316.5 96,-316.5 96,-316.5 205,-316.5 205,-316.5 211,-316.5 217,-322.5 217,-328.5 217,-328.5 217,-357.5 217,-357.5 217,-363.5 211,-369.5 205,-369.5"/>
<text text-anchor="middle" x="150.5" y="-354.3" font-family="Arial" font-size="14.00" fill="white">motion_commands</text>
<text text-anchor="middle" x="150.5" y="-339.3" font-family="Arial" font-size="14.00" fill="white">&#45; stop, follow, track</text>
<text text-anchor="middle" x="150.5" y="-324.3" font-family="Arial" font-size="14.00" fill="white">&#45; move, turn, pan</text>
</g>
<!-- M5&#45;&gt;OP2 -->
<g id="edge17" class="edge">
<title>M5&#45;&gt;OP2</title>
<path fill="none" stroke="black" d="M217.26,-343.7C246.57,-347.45 279.3,-356.91 301,-379 329.72,-408.23 292.96,-439.12 321,-469 323.05,-471.18 325.24,-473.21 327.55,-475.1"/>
<polygon fill="black" stroke="black" points="325.65,-478.05 335.82,-481.01 329.71,-472.35 325.65,-478.05"/>
</g>
<!-- M5&#45;&gt;GP2 -->
<g id="edge18" class="edge">
<title>M5&#45;&gt;GP2</title>
<path fill="none" stroke="black" d="M217.03,-346.79C252.14,-348.82 295.99,-351.36 334.61,-353.6"/>
<polygon fill="black" stroke="black" points="334.65,-357.1 344.83,-354.19 335.05,-350.12 334.65,-357.1"/>
</g>
<!-- M6 -->
<g id="node6" class="node">
<title>M6</title>
<path fill="#4caf50" stroke="black" d="M216,-298C216,-298 85,-298 85,-298 79,-298 73,-292 73,-286 73,-286 73,-242 73,-242 73,-236 79,-230 85,-230 85,-230 216,-230 216,-230 222,-230 228,-236 228,-242 228,-242 228,-286 228,-286 228,-292 222,-298 216,-298"/>
<text text-anchor="middle" x="150.5" y="-282.8" font-family="Arial" font-size="14.00" fill="white">compound_commands</text>
<text text-anchor="middle" x="150.5" y="-267.8" font-family="Arial" font-size="14.00" fill="white">&#45; move@forward</text>
<text text-anchor="middle" x="150.5" y="-252.8" font-family="Arial" font-size="14.00" fill="white">&#45; pan@left</text>
<text text-anchor="middle" x="150.5" y="-237.8" font-family="Arial" font-size="14.00" fill="white">&#45; follow@person</text>
</g>
<!-- M6&#45;&gt;OP2 -->
<g id="edge19" class="edge">
<title>M6&#45;&gt;OP2</title>
<path fill="none" stroke="black" d="M228.15,-269.52C254.97,-275.38 282.87,-286.66 301,-308 347.68,-362.96 274.21,-414.14 321,-469 323,-471.35 325.17,-473.52 327.47,-475.53"/>
<polygon fill="black" stroke="black" points="325.69,-478.57 335.79,-481.78 329.9,-472.98 325.69,-478.57"/>
</g>
<!-- M6&#45;&gt;GP2 -->
<g id="edge20" class="edge">
<title>M6&#45;&gt;GP2</title>
<path fill="none" stroke="black" d="M228,-284.99C251.56,-291.86 277.48,-299.84 301,-308 325.26,-316.42 351.66,-326.82 374.08,-336.02"/>
<polygon fill="black" stroke="black" points="372.85,-339.3 383.43,-339.89 375.53,-332.83 372.85,-339.3"/>
</g>
<!-- M7 -->
<g id="node7" class="node">
<title>M7</title>
<path fill="#9c27b0" stroke="black" d="M231,-723.5C231,-723.5 70,-723.5 70,-723.5 64,-723.5 58,-717.5 58,-711.5 58,-711.5 58,-682.5 58,-682.5 58,-676.5 64,-670.5 70,-670.5 70,-670.5 231,-670.5 231,-670.5 237,-670.5 243,-676.5 243,-682.5 243,-682.5 243,-711.5 243,-711.5 243,-717.5 237,-723.5 231,-723.5"/>
<text text-anchor="middle" x="150.5" y="-708.3" font-family="Arial" font-size="14.00" fill="white">cmd_response</text>
<text text-anchor="middle" x="150.5" y="-693.3" font-family="Arial" font-size="14.00" fill="white">Rules for mapping</text>
<text text-anchor="middle" x="150.5" y="-678.3" font-family="Arial" font-size="14.00" fill="white">user requests to commands</text>
</g>
<!-- M7&#45;&gt;OP1 -->
<g id="edge9" class="edge">
<title>M7&#45;&gt;OP1</title>
<path fill="none" stroke="black" d="M243.19,-682.64C262.87,-677.62 283.11,-670.92 301,-662 341.12,-641.99 379.53,-606.97 403.4,-582.68"/>
<polygon fill="black" stroke="black" points="406.19,-584.83 410.63,-575.21 401.16,-579.97 406.19,-584.83"/>
</g>
<!-- M7&#45;&gt;OP2 -->
<g id="edge10" class="edge">
<title>M7&#45;&gt;OP2</title>
<path fill="none" stroke="black" d="M243.12,-693.04C264.77,-687.78 285.92,-678.37 301,-662 341.8,-617.72 280.78,-572.81 321,-528 323.04,-525.72 325.25,-523.62 327.59,-521.68"/>
<polygon fill="black" stroke="black" points="329.88,-524.34 336,-515.69 325.82,-518.64 329.88,-524.34"/>
</g>
<!-- M8 -->
<g id="node8" class="node">
<title>M8</title>
<path fill="#ff9800" stroke="black" d="M212.5,-69.5C212.5,-69.5 88.5,-69.5 88.5,-69.5 82.5,-69.5 76.5,-63.5 76.5,-57.5 76.5,-57.5 76.5,-28.5 76.5,-28.5 76.5,-22.5 82.5,-16.5 88.5,-16.5 88.5,-16.5 212.5,-16.5 212.5,-16.5 218.5,-16.5 224.5,-22.5 224.5,-28.5 224.5,-28.5 224.5,-57.5 224.5,-57.5 224.5,-63.5 218.5,-69.5 212.5,-69.5"/>
<text text-anchor="middle" x="150.5" y="-54.3" font-family="Arial" font-size="14.00">visual_cmd_response</text>
<text text-anchor="middle" x="150.5" y="-39.3" font-family="Arial" font-size="14.00">JSON format for</text>
<text text-anchor="middle" x="150.5" y="-24.3" font-family="Arial" font-size="14.00">scene descriptions</text>
</g>
<!-- M8&#45;&gt;GP2 -->
<g id="edge21" class="edge">
<title>M8&#45;&gt;GP2</title>
<path fill="none" stroke="black" d="M224.77,-47.37C251.19,-52.14 279.7,-61.4 301,-79 381.01,-145.13 412.75,-272.36 423.38,-329.71"/>
<polygon fill="black" stroke="black" points="420,-330.65 425.18,-339.89 426.89,-329.43 420,-330.65"/>
</g>
<!-- M9 -->
<g id="node9" class="node">
<title>M9</title>
<path fill="#ff9800" stroke="black" d="M217.5,-211.5C217.5,-211.5 83.5,-211.5 83.5,-211.5 77.5,-211.5 71.5,-205.5 71.5,-199.5 71.5,-199.5 71.5,-170.5 71.5,-170.5 71.5,-164.5 77.5,-158.5 83.5,-158.5 83.5,-158.5 217.5,-158.5 217.5,-158.5 223.5,-158.5 229.5,-164.5 229.5,-170.5 229.5,-170.5 229.5,-199.5 229.5,-199.5 229.5,-205.5 223.5,-211.5 217.5,-211.5"/>
<text text-anchor="middle" x="150.5" y="-196.3" font-family="Arial" font-size="14.00">visual_convo_response</text>
<text text-anchor="middle" x="150.5" y="-181.3" font-family="Arial" font-size="14.00">Natural language</text>
<text text-anchor="middle" x="150.5" y="-166.3" font-family="Arial" font-size="14.00">scene descriptions</text>
</g>
<!-- M9&#45;&gt;GP1 -->
<g id="edge22" class="edge">
<title>M9&#45;&gt;GP1</title>
<path fill="none" stroke="black" d="M229.84,-186.46C256.02,-191 283.08,-200.86 301,-221 350.4,-276.51 272.15,-331 321,-387 321.64,-387.73 322.29,-388.44 322.95,-389.13"/>
<polygon fill="black" stroke="black" points="320.83,-391.93 330.65,-395.91 325.46,-386.67 320.83,-391.93"/>
</g>
<!-- M10 -->
<g id="node10" class="node">
<title>M10</title>
<path fill="#e91e63" stroke="black" d="M220.5,-652.5C220.5,-652.5 80.5,-652.5 80.5,-652.5 74.5,-652.5 68.5,-646.5 68.5,-640.5 68.5,-640.5 68.5,-611.5 68.5,-611.5 68.5,-605.5 74.5,-599.5 80.5,-599.5 80.5,-599.5 220.5,-599.5 220.5,-599.5 226.5,-599.5 232.5,-605.5 232.5,-611.5 232.5,-611.5 232.5,-640.5 232.5,-640.5 232.5,-646.5 226.5,-652.5 220.5,-652.5"/>
<text text-anchor="middle" x="150.5" y="-637.3" font-family="Arial" font-size="14.00" fill="white">personality_traits</text>
<text text-anchor="middle" x="150.5" y="-622.3" font-family="Arial" font-size="14.00" fill="white">&#45; Friendly but concise</text>
<text text-anchor="middle" x="150.5" y="-607.3" font-family="Arial" font-size="14.00" fill="white">&#45; First&#45;person references</text>
</g>
<!-- M10&#45;&gt;OP1 -->
<g id="edge11" class="edge">
<title>M10&#45;&gt;OP1</title>
<path fill="none" stroke="black" d="M232.67,-606.85C254.86,-601.51 278.88,-595.62 301,-590 316.39,-586.09 332.79,-581.79 348.52,-577.61"/>
<polygon fill="black" stroke="black" points="349.45,-580.98 358.21,-575.02 347.65,-574.22 349.45,-580.98"/>
</g>
<!-- M10&#45;&gt;GP1 -->
<g id="edge12" class="edge">
<title>M10&#45;&gt;GP1</title>
<path fill="none" stroke="black" d="M232.85,-623.46C257.89,-618.62 283.46,-608.86 301,-590 338.12,-550.09 288.73,-512.93 321,-469 330.3,-456.34 343.41,-446.46 357.29,-438.81"/>
<polygon fill="black" stroke="black" points="359.18,-441.77 366.48,-434.1 355.98,-435.54 359.18,-441.77"/>
</g>
</g>
</svg>
